<svg height="512" viewBox="0 0 64 64" width="512" xmlns="http://www.w3.org/2000/svg"><g id="QR_code" data-name="QR code"><rect fill="#57a4ff" height="58" rx="4" width="36" x="5" y="3"/><path d="m5 26v31a4 4 0 0 0 4 4h27.4c-18.02-3.79-31.4-18.006-31.4-35z" fill="#2488ff"/><path d="m14 9h18a2 2 0 0 0 2-2v-4h-22v4a2 2 0 0 0 2 2z" fill="#6d6e71"/><circle cx="41" cy="32" fill="#ffcd00" r="18"/><path d="m44 25h4v4h-4z" fill="#ffcd00"/><path d="m34 25h4v4h-4z" fill="#ebbf00"/><path d="m34 35h4v4h-4z" fill="#ebbf00"/><path d="m18 31h2v2h-2z" fill="#ff3051"/><path d="m18.75 36.694h2v2h-2z" fill="#ff3051" transform="matrix(.966 -.259 .259 .966 -9.083 6.396)"/><path d="m18.75 25.306h2v2h-2z" fill="#ff3051" transform="matrix(.259 -.966 .966 .259 -10.772 38.574)"/><path d="m34 56h-22a1 1 0 0 0 0 2h22a1 1 0 0 0 0-2z" fill="#6d6e71"/><path d="m20.948 42h2v2h-2z" fill="#ff3051" transform="matrix(.866 -.5 .5 .866 -18.557 16.731)"/><path d="m24.443 46.557h2v2h-2z" fill="#ff3051" transform="matrix(.707 -.707 .707 .707 -26.175 31.92)"/><path d="m29 50.052h2v2h-2z" fill="#ff3051" transform="matrix(.5 -.866 .866 .5 -29.213 51.512)"/><path d="m20.947 20h2v2h-2z" fill="#ff3051" transform="matrix(.5 -.866 .866 .5 -7.213 29.506)"/><path d="m24.444 15.443h2v2h-2z" fill="#ff3051" transform="matrix(.707 -.707 .707 .707 -4.175 22.808)"/><path d="m29 11.948h2v2h-2z" fill="#ff3051" transform="matrix(.866 -.5 .5 .866 -2.454 16.736)"/><path d="m48 52h-2v2h-2v2h2v2h2v-2h2v-2h-2z" fill="#ff3051"/><path d="m44 60h6v2h-6z" fill="#ff3051"/><path d="m51 12a1 1 0 0 1 1 1 1 1 0 0 0 2 0 3 3 0 0 0 -3-3 1 1 0 0 0 0 2z" fill="#006df0"/><path d="m51 2a1 1 0 0 0 0 2 9.011 9.011 0 0 1 9 9 1 1 0 0 0 2 0 11.013 11.013 0 0 0 -11-11z" fill="#006df0"/><path d="m51 8a5.006 5.006 0 0 1 5 5 1 1 0 0 0 2 0 7.008 7.008 0 0 0 -7-7 1 1 0 0 0 0 2z" fill="#006df0"/><g fill="#f1f2f2"><path d="m47 23h3v3h2v-5h-5z"/><path d="m32 23h3v-2h-5v5h2z"/><path d="m50 41h-3v2h5v-5h-2z"/><path d="m32 38h-2v5h5v-2h-3z"/><path d="m51 33v-2h-9v-8h-2v8h-9v2h9v8h2v-8z"/><path d="m49 24h-6v6h6zm-2 4h-2v-2h2z"/><path d="m33 30h6v-6h-6zm2-4h2v2h-2z"/><path d="m33 40h6v-6h-6zm2-4h2v2h-2z"/><path d="m44 34h5v2h-5z"/><path d="m44 37h2v3h-2z"/><path d="m47 37h2v2h-2z"/></g></g></svg>